<mxfile host="app.diagrams.net" modified="2020-11-14T22:41:25.926Z" agent="5.0 (Windows NT 10.0; Win64; x64) AppleWebKit/537.36 (KHTML, like Gecko) Chrome/86.0.4240.198 Safari/537.36" etag="TChd408MYvH_J6jhmtUM" version="13.9.8" type="github">
  <diagram name="Page-1" id="e7e014a7-5840-1c2e-5031-d8a46d1fe8dd">
    <mxGraphModel dx="1102" dy="535" grid="1" gridSize="10" guides="1" tooltips="1" connect="1" arrows="1" fold="1" page="1" pageScale="1" pageWidth="1169" pageHeight="826" background="#ffffff" math="0" shadow="0">
      <root>
        <mxCell id="0" />
        <mxCell id="1" parent="0" />
        <mxCell id="2" value="user" style="swimlane;whiteSpace=wrap;fontStyle=0" parent="1" vertex="1">
          <mxGeometry x="50" y="128" width="930" height="570" as="geometry" />
        </mxCell>
        <mxCell id="5" value="" style="ellipse;shape=startState;fillColor=#000000;strokeColor=#ff0000;" parent="2" vertex="1">
          <mxGeometry x="540" y="42" width="30" height="30" as="geometry" />
        </mxCell>
        <mxCell id="6" value="" style="edgeStyle=elbowEdgeStyle;elbow=horizontal;verticalAlign=bottom;endArrow=open;endSize=8;strokeColor=#FF0000;endFill=1;rounded=0;entryX=0.5;entryY=0;entryDx=0;entryDy=0;" parent="2" source="5" target="7" edge="1">
          <mxGeometry x="100" y="40" as="geometry">
            <mxPoint x="115" y="110" as="targetPoint" />
            <Array as="points">
              <mxPoint x="197" y="82" />
            </Array>
          </mxGeometry>
        </mxCell>
        <mxCell id="7" value="view all players" style="" parent="2" vertex="1">
          <mxGeometry x="142.25" y="102" width="110" height="50" as="geometry" />
        </mxCell>
        <mxCell id="8" value="add player" style="" parent="2" vertex="1">
          <mxGeometry x="30" y="220" width="110" height="50" as="geometry" />
        </mxCell>
        <mxCell id="9" value="" style="endArrow=open;strokeColor=#FF0000;endFill=1;rounded=0;exitX=0.25;exitY=1;exitDx=0;exitDy=0;" parent="2" source="7" target="8" edge="1">
          <mxGeometry relative="1" as="geometry">
            <Array as="points">
              <mxPoint x="170" y="202" />
              <mxPoint x="170" y="245" />
            </Array>
          </mxGeometry>
        </mxCell>
        <mxCell id="10" value="view one player" style="" parent="2" vertex="1">
          <mxGeometry x="142.25" y="285" width="110" height="50" as="geometry" />
        </mxCell>
        <mxCell id="12" value="" style="edgeStyle=elbowEdgeStyle;elbow=horizontal;strokeColor=#FF0000;endArrow=open;endFill=1;rounded=0;exitX=0;exitY=0.5;exitDx=0;exitDy=0;" parent="2" source="8" target="7" edge="1">
          <mxGeometry width="100" height="100" relative="1" as="geometry">
            <mxPoint x="160" y="290" as="sourcePoint" />
            <mxPoint x="260" y="190" as="targetPoint" />
            <Array as="points">
              <mxPoint x="6" y="192" />
            </Array>
          </mxGeometry>
        </mxCell>
        <mxCell id="geZT3zxGgYLfBWRcLV4t-52" value="view all games" style="" vertex="1" parent="2">
          <mxGeometry x="482.25" y="102" width="110" height="50" as="geometry" />
        </mxCell>
        <mxCell id="geZT3zxGgYLfBWRcLV4t-53" value="add game" style="" vertex="1" parent="2">
          <mxGeometry x="370" y="220" width="110" height="50" as="geometry" />
        </mxCell>
        <mxCell id="geZT3zxGgYLfBWRcLV4t-54" value="" style="endArrow=open;strokeColor=#FF0000;endFill=1;rounded=0;exitX=0.25;exitY=1;exitDx=0;exitDy=0;" edge="1" parent="2" source="geZT3zxGgYLfBWRcLV4t-52" target="geZT3zxGgYLfBWRcLV4t-53">
          <mxGeometry relative="1" as="geometry">
            <Array as="points">
              <mxPoint x="510" y="245" />
            </Array>
          </mxGeometry>
        </mxCell>
        <mxCell id="geZT3zxGgYLfBWRcLV4t-55" value="view one game" style="" vertex="1" parent="2">
          <mxGeometry x="482.25" y="285" width="110" height="50" as="geometry" />
        </mxCell>
        <mxCell id="geZT3zxGgYLfBWRcLV4t-56" value="view all results" style="" vertex="1" parent="2">
          <mxGeometry x="750" y="102" width="110" height="50" as="geometry" />
        </mxCell>
        <mxCell id="geZT3zxGgYLfBWRcLV4t-57" value="" style="edgeStyle=elbowEdgeStyle;elbow=horizontal;verticalAlign=bottom;endArrow=open;endSize=8;strokeColor=#FF0000;endFill=1;rounded=0;" edge="1" parent="2" source="5">
          <mxGeometry x="133" y="-63" as="geometry">
            <mxPoint x="555" y="102" as="targetPoint" />
            <mxPoint x="515.25" y="82" as="sourcePoint" />
            <Array as="points">
              <mxPoint x="555" y="72" />
              <mxPoint x="457" y="82" />
              <mxPoint x="440" y="102" />
            </Array>
          </mxGeometry>
        </mxCell>
        <mxCell id="geZT3zxGgYLfBWRcLV4t-59" value="" style="edgeStyle=elbowEdgeStyle;elbow=horizontal;verticalAlign=bottom;endArrow=open;endSize=8;strokeColor=#FF0000;endFill=1;rounded=0;" edge="1" parent="2" target="geZT3zxGgYLfBWRcLV4t-55">
          <mxGeometry x="172.75" y="-111" as="geometry">
            <mxPoint x="537" y="282" as="targetPoint" />
            <mxPoint x="537" y="152" as="sourcePoint" />
            <Array as="points">
              <mxPoint x="536.75" y="162" />
              <mxPoint x="529.75" y="182" />
            </Array>
          </mxGeometry>
        </mxCell>
        <mxCell id="geZT3zxGgYLfBWRcLV4t-58" value="" style="edgeStyle=elbowEdgeStyle;elbow=horizontal;verticalAlign=bottom;endArrow=open;endSize=8;strokeColor=#FF0000;endFill=1;rounded=0;entryX=0.5;entryY=0;entryDx=0;entryDy=0;" edge="1" parent="2" target="10">
          <mxGeometry x="-167.25" y="-111" as="geometry">
            <mxPoint x="196.75" y="182" as="targetPoint" />
            <mxPoint x="197" y="152" as="sourcePoint" />
            <Array as="points">
              <mxPoint x="196.75" y="162" />
              <mxPoint x="189.75" y="182" />
            </Array>
          </mxGeometry>
        </mxCell>
        <mxCell id="geZT3zxGgYLfBWRcLV4t-60" value="" style="edgeStyle=elbowEdgeStyle;elbow=horizontal;verticalAlign=bottom;endArrow=open;endSize=8;strokeColor=#FF0000;endFill=1;rounded=0;" edge="1" parent="2" source="5">
          <mxGeometry x="360.5" y="-191" as="geometry">
            <mxPoint x="800" y="102" as="targetPoint" />
            <mxPoint x="724.75" y="72" as="sourcePoint" />
            <Array as="points">
              <mxPoint x="800" y="82" />
            </Array>
          </mxGeometry>
        </mxCell>
        <mxCell id="geZT3zxGgYLfBWRcLV4t-61" value="add results" style="" vertex="1" parent="2">
          <mxGeometry x="590" y="210" width="110" height="50" as="geometry" />
        </mxCell>
        <mxCell id="geZT3zxGgYLfBWRcLV4t-62" value="" style="endArrow=open;strokeColor=#FF0000;endFill=1;rounded=0;exitX=1;exitY=0.5;exitDx=0;exitDy=0;" edge="1" parent="2" target="geZT3zxGgYLfBWRcLV4t-61" source="geZT3zxGgYLfBWRcLV4t-52">
          <mxGeometry relative="1" as="geometry">
            <Array as="points">
              <mxPoint x="645" y="127" />
              <mxPoint x="645" y="202" />
            </Array>
            <mxPoint x="729.75" y="142" as="sourcePoint" />
          </mxGeometry>
        </mxCell>
        <mxCell id="geZT3zxGgYLfBWRcLV4t-63" value="" style="endArrow=open;strokeColor=#FF0000;endFill=1;rounded=0;exitX=1;exitY=0.5;exitDx=0;exitDy=0;entryX=0.5;entryY=1;entryDx=0;entryDy=0;" edge="1" parent="2" target="geZT3zxGgYLfBWRcLV4t-56">
          <mxGeometry relative="1" as="geometry">
            <Array as="points">
              <mxPoint x="752.75" y="232" />
              <mxPoint x="805" y="232" />
            </Array>
            <mxPoint x="700" y="232" as="sourcePoint" />
            <mxPoint x="752.75" y="315" as="targetPoint" />
          </mxGeometry>
        </mxCell>
        <mxCell id="geZT3zxGgYLfBWRcLV4t-65" value="delete game" style="" vertex="1" parent="2">
          <mxGeometry x="360" y="152" width="110" height="50" as="geometry" />
        </mxCell>
        <mxCell id="geZT3zxGgYLfBWRcLV4t-64" value="delete player" style="" vertex="1" parent="2">
          <mxGeometry x="220" y="170" width="110" height="50" as="geometry" />
        </mxCell>
        <mxCell id="geZT3zxGgYLfBWRcLV4t-70" value="" style="endArrow=open;strokeColor=#FF0000;endFill=1;rounded=0;exitX=0.25;exitY=1;exitDx=0;exitDy=0;entryX=0.5;entryY=0;entryDx=0;entryDy=0;" edge="1" parent="2" target="geZT3zxGgYLfBWRcLV4t-64">
          <mxGeometry relative="1" as="geometry">
            <mxPoint x="252" y="117" as="sourcePoint" />
            <mxPoint x="222.25" y="210" as="targetPoint" />
            <Array as="points">
              <mxPoint x="275" y="117" />
            </Array>
          </mxGeometry>
        </mxCell>
        <mxCell id="geZT3zxGgYLfBWRcLV4t-67" value="" style="endArrow=open;strokeColor=#FF0000;endFill=1;rounded=0;exitX=0.25;exitY=1;exitDx=0;exitDy=0;" edge="1" parent="2">
          <mxGeometry relative="1" as="geometry">
            <mxPoint x="279.75" y="170" as="sourcePoint" />
            <mxPoint x="250" y="122" as="targetPoint" />
            <Array as="points">
              <mxPoint x="280" y="122" />
            </Array>
          </mxGeometry>
        </mxCell>
        <mxCell id="geZT3zxGgYLfBWRcLV4t-68" value="" style="endArrow=open;strokeColor=#FF0000;endFill=1;rounded=0;exitX=0.25;exitY=1;exitDx=0;exitDy=0;" edge="1" parent="2">
          <mxGeometry relative="1" as="geometry">
            <mxPoint x="419.75" y="152" as="sourcePoint" />
            <mxPoint x="480" y="132" as="targetPoint" />
            <Array as="points">
              <mxPoint x="420" y="132" />
            </Array>
          </mxGeometry>
        </mxCell>
        <mxCell id="geZT3zxGgYLfBWRcLV4t-69" value="" style="endArrow=open;strokeColor=#FF0000;endFill=1;rounded=0;exitX=0.25;exitY=1;exitDx=0;exitDy=0;" edge="1" parent="2" target="geZT3zxGgYLfBWRcLV4t-65">
          <mxGeometry relative="1" as="geometry">
            <mxPoint x="482" y="127" as="sourcePoint" />
            <mxPoint x="452.25" y="220" as="targetPoint" />
            <Array as="points">
              <mxPoint x="420" y="127" />
            </Array>
          </mxGeometry>
        </mxCell>
      </root>
    </mxGraphModel>
  </diagram>
</mxfile>
